<?xml version="1.0" encoding="UTF-8" standalone="no"?><!DOCTYPE svg PUBLIC "-//W3C//DTD SVG 1.1//EN" "http://www.w3.org/Graphics/SVG/1.1/DTD/svg11.dtd"><svg width="100%" height="100%" viewBox="0 0 2390 2216" version="1.1" xmlns="http://www.w3.org/2000/svg" xmlns:xlink="http://www.w3.org/1999/xlink" xml:space="preserve" xmlns:serif="http://www.serif.com/" style="fill-rule:evenodd;clip-rule:evenodd;stroke-linecap:round;stroke-linejoin:round;stroke-miterlimit:1.5;"><ellipse cx="718.75" cy="727.083" rx="718.75" ry="610.417" style="fill:#2fd4bf;"/><ellipse cx="720.833" cy="1370.83" rx="718.75" ry="762.5" style="fill:#2fd4bf;"/><ellipse cx="1537.5" cy="631.25" rx="785.417" ry="631.25" style="fill:#2fd4bf;"/><ellipse cx="937.5" cy="939.583" rx="718.75" ry="610.417" style="fill:#0ca5e9;"/><ellipse cx="1629.17" cy="1556.25" rx="760.417" ry="635.417" style="fill:#0ca5e9;"/><path d="M829.911,368.389c71.392,-190.503 630.224,-392.561 751.505,-224.775c493.793,683.135 146.047,910.104 -358.67,1126.41c-16.019,6.866 505.186,-2.33 506.685,116.799c6.864,545.547 -362.887,1237.34 -771.507,519.191c-45.528,-80.015 -418.167,102.466 -513.626,40.704c-224.197,-145.054 -311.675,-877.146 -131.235,-987.293c233.19,-142.346 447.229,-405.262 516.848,-591.035Z" style="fill:#0f172a;stroke:#0f172a;stroke-width:4.17px;"/><path d="M840.033,714.931c-29.92,-66.521 124.35,-219.236 148.28,-125.532c97.43,381.515 712.15,4.731 612.564,125.532c-3.161,3.834 -574.754,507.988 -583.359,568.77c-90.029,635.88 502.807,1096.03 583.359,110.789c4.186,-51.205 -815.546,188.652 -836.93,201.899c-169.598,105.064 -493.64,-180.475 -188.394,-580.546c114.515,-150.089 341.215,-130.305 264.48,-300.912Z" style="fill:#f471b5;stroke:#0f172a;stroke-width:4.17px;"/></svg>